<svg xmlns="http://www.w3.org/2000/svg" width="48" height="48" viewBox="0 0 48 48">
  <defs>
    <linearGradient id="g" x1="0" y1="0" x2="48" y2="48" gradientUnits="userSpaceOnUse">
      <stop offset="0" stop-color="#10b981"/>
      <stop offset="0.5" stop-color="#059669"/>
      <stop offset="1" stop-color="#0f766e"/>
    </linearGradient>
    <linearGradient id="s" x1="4" y1="4" x2="44" y2="44" gradientUnits="userSpaceOnUse">
      <stop offset="0" stop-color="#ffffff" stop-opacity="0.35"/>
      <stop offset="1" stop-color="#ffffff" stop-opacity="0"/>
    </linearGradient>
  </defs>
  <rect width="48" height="48" rx="12" fill="url(#g)"/>
  <rect width="48" height="48" rx="12" fill="url(#s)"/>
  <path d="M14 33V15h5.4c4.9 0 7.9 3.1 7.9 7.2 0 4.2-3 7.2-7.9 7.2H18.2V33H14Zm4.2-8.2h1.1c2.3 0 3.6-1.2 3.6-3.6 0-2.3-1.3-3.6-3.6-3.6h-1.1v7.2Z" fill="#fff"/>
  <path d="M28.6 33l4.4-9h3.6l4.4 9h-4l-.7-1.7h-3.1L32.5 33h-3.9Zm4.5-4.9h1.9l-1-2.4-1-2.4h.1l-1 2.4-1 2.4Z" fill="#a7f3d0" opacity="0.9"/>
  <circle cx="42" cy="6" r="3" fill="#bef264"/>
</svg>
